<svg width="106" height="96" viewBox="0 0 106 96" fill="none" xmlns="http://www.w3.org/2000/svg">
<mask id="mask0_2805_63207" style="mask-type:alpha" maskUnits="userSpaceOnUse" x="0" y="0" width="106" height="96">
<rect width="106" height="96" rx="12" fill="#E6E1DC"/>
</mask>
<g mask="url(#mask0_2805_63207)">
<rect width="106" height="96" rx="12" fill="#F0F4FA"/>
<rect x="23" y="14.5" width="83" height="83" rx="14" fill="white"/>
<path d="M38.072 74.656C41.592 74.656 43.896 70.88 45.336 65.824L48.856 53.376H52.408L52.728 52.32H49.144L49.56 50.88C50.552 47.456 51.608 46.016 52.6 46.016C53.336 46.016 53.688 46.688 53.688 47.744V48.192H55.992C56.28 47.968 56.568 47.456 56.568 46.752C56.568 45.696 55.704 44.864 53.688 44.864C50.456 44.864 48.056 47.968 46.712 52.32H44.088L43.864 53.056L46.36 53.568L42.36 68.416C41.432 71.84 40.376 73.504 39.384 73.504C38.424 73.504 38.072 72.832 38.072 71.776V71.328H35.768C35.48 71.552 35.192 72.064 35.192 72.768C35.192 73.824 36.056 74.656 38.072 74.656ZM66.6892 75.456L67.0733 74.72C62.0173 70.912 60.3533 65.312 60.3533 60.064C60.3533 54.496 62.4333 48.352 67.0733 44.992L66.6573 44.288C61.0573 47.424 58.3693 54.08 58.3693 60.064C58.3693 65.888 61.4413 72.608 66.6892 75.456ZM66.6935 68H73.4775V67.104H71.3335L70.5015 66.08L73.7975 61.28H73.8615L77.2535 66.08V67.104H75.1095V68H82.8215V67.424L80.9655 66.08L76.0055 59.232L79.8455 54.24L81.6695 52.896V52.32H75.8775V53.216H77.3175L78.2135 54.24L75.4295 58.368H75.3655L72.4215 54.24V53.216H74.2455V52.32H67.1735V52.896L68.7735 54.24L73.2535 60.448L68.8375 66.08L66.6935 67.456V68ZM82.512 75.456C87.76 72.608 90.832 65.888 90.832 60.064C90.832 54.08 88.144 47.424 82.544 44.288L82.128 44.992C86.768 48.352 88.848 54.496 88.848 60.064C88.848 65.312 87.184 70.912 82.128 74.72L82.512 75.456Z" fill="#C8D2D7"/>
<path d="M45.336 65.824L45.8169 65.961L45.8171 65.9601L45.336 65.824ZM48.856 53.376V52.876H48.4778L48.3749 53.2399L48.856 53.376ZM52.408 53.376V53.876H52.7789L52.8865 53.521L52.408 53.376ZM52.728 52.32L53.2065 52.465L53.402 51.82H52.728V52.32ZM49.144 52.32L48.6636 52.1812L48.4791 52.82H49.144V52.32ZM49.56 50.88L49.0798 50.7409L49.0796 50.7412L49.56 50.88ZM53.688 48.192H53.188V48.692H53.688V48.192ZM55.992 48.192V48.692H56.1636L56.299 48.5867L55.992 48.192ZM46.712 52.32V52.82H47.0809L47.1897 52.4675L46.712 52.32ZM44.088 52.32V51.82H43.7175L43.6097 52.1744L44.088 52.32ZM43.864 53.056L43.3857 52.9104L43.2259 53.4355L43.7635 53.5458L43.864 53.056ZM46.36 53.568L46.8428 53.6981L46.981 53.185L46.4605 53.0782L46.36 53.568ZM42.36 68.416L42.8426 68.5468L42.8428 68.5461L42.36 68.416ZM38.072 71.328H38.572V70.828H38.072V71.328ZM35.768 71.328V70.828H35.5964L35.461 70.9333L35.768 71.328ZM38.072 75.156C40.0383 75.156 41.6267 74.0928 42.8823 72.4383C44.1321 70.7914 45.0892 68.5159 45.8169 65.961L44.8551 65.687C44.1428 68.1881 43.2279 70.3286 42.0857 71.8337C40.9493 73.3312 39.6257 74.156 38.072 74.156V75.156ZM45.8171 65.9601L49.3371 53.5121L48.3749 53.2399L44.8549 65.6879L45.8171 65.9601ZM48.856 53.876H52.408V52.876H48.856V53.876ZM52.8865 53.521L53.2065 52.465L52.2495 52.175L51.9295 53.231L52.8865 53.521ZM52.728 51.82H49.144V52.82H52.728V51.82ZM49.6244 52.4588L50.0404 51.0188L49.0796 50.7412L48.6636 52.1812L49.6244 52.4588ZM50.0403 51.0191C50.5307 49.3263 51.0263 48.1644 51.4993 47.4364C51.9848 46.6892 52.3661 46.516 52.6 46.516V45.516C51.8419 45.516 51.1992 46.0628 50.6607 46.8916C50.1097 47.7396 49.5813 49.0097 49.0798 50.7409L50.0403 51.0191ZM52.6 46.516C52.7831 46.516 52.8968 46.5837 52.9913 46.7412C53.1048 46.9305 53.188 47.2583 53.188 47.744H54.188C54.188 47.1737 54.0952 46.6375 53.8487 46.2268C53.5832 45.7843 53.1529 45.516 52.6 45.516V46.516ZM53.188 47.744V48.192H54.188V47.744H53.188ZM53.688 48.692H55.992V47.692H53.688V48.692ZM56.299 48.5867C56.7302 48.2512 57.068 47.5809 57.068 46.752H56.068C56.068 47.3311 55.8298 47.6848 55.685 47.7973L56.299 48.5867ZM57.068 46.752C57.068 46.0717 56.7815 45.446 56.1779 45.0075C55.5934 44.5828 54.7553 44.364 53.688 44.364V45.364C54.6367 45.364 55.2386 45.5612 55.5901 45.8165C55.9225 46.058 56.068 46.3763 56.068 46.752H57.068ZM53.688 44.364C51.8938 44.364 50.3587 45.2307 49.1181 46.628C47.8831 48.0189 46.9191 49.955 46.2343 52.1725L47.1897 52.4675C47.8489 50.333 48.7569 48.5411 49.8659 47.292C50.9693 46.0493 52.2502 45.364 53.688 45.364V44.364ZM46.712 51.82H44.088V52.82H46.712V51.82ZM43.6097 52.1744L43.3857 52.9104L44.3423 53.2016L44.5663 52.4656L43.6097 52.1744ZM43.7635 53.5458L46.2595 54.0578L46.4605 53.0782L43.9645 52.5662L43.7635 53.5458ZM45.8772 53.4379L41.8772 68.2859L42.8428 68.5461L46.8428 53.6981L45.8772 53.4379ZM41.8774 68.2852C41.4185 69.9784 40.9369 71.2003 40.4667 71.9877C39.9738 72.8132 39.591 73.004 39.384 73.004V74.004C40.169 74.004 40.8102 73.3628 41.3253 72.5004C41.8631 71.5997 42.3735 70.2776 42.8426 68.5468L41.8774 68.2852ZM39.384 73.004C39.0365 73.004 38.8769 72.8924 38.7789 72.7511C38.6566 72.5748 38.572 72.2651 38.572 71.776H37.572C37.572 72.3429 37.6634 72.8972 37.9571 73.3209C38.2751 73.7796 38.7715 74.004 39.384 74.004V73.004ZM38.572 71.776V71.328H37.572V71.776H38.572ZM38.072 70.828H35.768V71.828H38.072V70.828ZM35.461 70.9333C35.0298 71.2688 34.692 71.9391 34.692 72.768H35.692C35.692 72.1889 35.9302 71.8352 36.075 71.7227L35.461 70.9333ZM34.692 72.768C34.692 73.4483 34.9785 74.074 35.5821 74.5125C36.1666 74.9372 37.0047 75.156 38.072 75.156V74.156C37.1233 74.156 36.5214 73.9588 36.1699 73.7035C35.8375 73.462 35.692 73.1437 35.692 72.768H34.692ZM66.6893 75.456L66.4508 75.8955L66.8975 76.1379L67.1325 75.6873L66.6893 75.456ZM67.0732 74.72L67.5165 74.9513L67.7126 74.5756L67.3741 74.3206L67.0732 74.72ZM67.0732 44.992L67.3665 45.397L67.7355 45.1298L67.5037 44.7376L67.0732 44.992ZM66.6572 44.288L67.0877 44.0336L66.8392 43.6131L66.4129 43.8517L66.6572 44.288ZM67.1325 75.6873L67.5165 74.9513L66.63 74.4887L66.246 75.2247L67.1325 75.6873ZM67.3741 74.3206C62.4823 70.6363 60.8533 65.2109 60.8533 60.064H59.8533C59.8533 65.4131 61.5522 71.1877 66.7724 75.1194L67.3741 74.3206ZM60.8533 60.064C60.8533 54.5928 62.9004 48.631 67.3665 45.397L66.78 44.587C61.9661 48.073 59.8533 54.3992 59.8533 60.064H60.8533ZM67.5037 44.7376L67.0877 44.0336L66.2268 44.5424L66.6428 45.2464L67.5037 44.7376ZM66.4129 43.8517C60.6077 47.1027 57.8692 53.9607 57.8692 60.064H58.8692C58.8692 54.1993 61.5068 47.7453 66.9016 44.7243L66.4129 43.8517ZM57.8692 60.064C57.8692 66.0216 61.0021 72.9386 66.4508 75.8955L66.9277 75.0165C61.8804 72.2774 58.8692 65.7544 58.8692 60.064H57.8692ZM66.6935 68H66.1935V68.5H66.6935V68ZM73.4775 68V68.5H73.9775V68H73.4775ZM73.4775 67.104H73.9775V66.604H73.4775V67.104ZM71.3335 67.104L70.9454 67.4193L71.0955 67.604H71.3335V67.104ZM70.5015 66.08L70.0893 65.797L69.8777 66.1052L70.1134 66.3953L70.5015 66.08ZM73.7975 61.28V60.78H73.5343L73.3853 60.997L73.7975 61.28ZM73.8615 61.28L74.2698 60.9914L74.1204 60.78H73.8615V61.28ZM77.2535 66.08H77.7535V65.9212L77.6618 65.7914L77.2535 66.08ZM77.2535 67.104V67.604H77.7535V67.104H77.2535ZM75.1095 67.104V66.604H74.6095V67.104H75.1095ZM75.1095 68H74.6095V68.5H75.1095V68ZM82.8215 68V68.5H83.3215V68H82.8215ZM82.8215 67.424H83.3215V67.1687L83.1148 67.019L82.8215 67.424ZM80.9655 66.08L80.5606 66.3733L80.6075 66.4381L80.6722 66.485L80.9655 66.08ZM76.0055 59.232L75.6092 58.9271L75.3816 59.223L75.6006 59.5253L76.0055 59.232ZM79.8455 54.24L79.5489 53.8375L79.4922 53.8793L79.4492 53.9351L79.8455 54.24ZM81.6695 52.896L81.9661 53.2985L82.1695 53.1487V52.896H81.6695ZM81.6695 52.32H82.1695V51.82H81.6695V52.32ZM75.8775 52.32V51.82H75.3775V52.32H75.8775ZM75.8775 53.216H75.3775V53.716H75.8775V53.216ZM77.3175 53.216L77.6938 52.8867L77.5444 52.716H77.3175V53.216ZM78.2135 54.24L78.628 54.5196L78.8433 54.2004L78.5898 53.9107L78.2135 54.24ZM75.4295 58.368V58.868H75.6954L75.844 58.6476L75.4295 58.368ZM75.3655 58.368L74.9584 58.6583L75.108 58.868H75.3655V58.368ZM72.4215 54.24H71.9215V54.4L72.0144 54.5303L72.4215 54.24ZM72.4215 53.216V52.716H71.9215V53.216H72.4215ZM74.2455 53.216V53.716H74.7455V53.216H74.2455ZM74.2455 52.32H74.7455V51.82H74.2455V52.32ZM67.1735 52.32V51.82H66.6735V52.32H67.1735ZM67.1735 52.896H66.6735V53.129L66.8519 53.2789L67.1735 52.896ZM68.7735 54.24L69.1789 53.9474L69.1426 53.8971L69.0951 53.8571L68.7735 54.24ZM73.2535 60.448L73.647 60.7565L73.8791 60.4605L73.659 60.1554L73.2535 60.448ZM68.8375 66.08L69.1076 66.5008L69.1788 66.4551L69.231 66.3885L68.8375 66.08ZM66.6935 67.456L66.4234 67.0352L66.1935 67.1828V67.456H66.6935ZM66.6935 68.5H73.4775V67.5H66.6935V68.5ZM73.9775 68V67.104H72.9775V68H73.9775ZM73.4775 66.604H71.3335V67.604H73.4775V66.604ZM71.7216 66.7887L70.8896 65.7647L70.1134 66.3953L70.9454 67.4193L71.7216 66.7887ZM70.9137 66.363L74.2097 61.563L73.3853 60.997L70.0893 65.797L70.9137 66.363ZM73.7975 61.78H73.8615V60.78H73.7975V61.78ZM73.4532 61.5686L76.8452 66.3686L77.6618 65.7914L74.2698 60.9914L73.4532 61.5686ZM76.7535 66.08V67.104H77.7535V66.08H76.7535ZM77.2535 66.604H75.1095V67.604H77.2535V66.604ZM74.6095 67.104V68H75.6095V67.104H74.6095ZM75.1095 68.5H82.8215V67.5H75.1095V68.5ZM83.3215 68V67.424H82.3215V68H83.3215ZM83.1148 67.019L81.2588 65.675L80.6722 66.485L82.5282 67.829L83.1148 67.019ZM81.3704 65.7867L76.4104 58.9387L75.6006 59.5253L80.5606 66.3733L81.3704 65.7867ZM76.4018 59.5369L80.2418 54.5449L79.4492 53.9351L75.6092 58.9271L76.4018 59.5369ZM80.1421 54.6425L81.9661 53.2985L81.3729 52.4935L79.5489 53.8375L80.1421 54.6425ZM82.1695 52.896V52.32H81.1695V52.896H82.1695ZM81.6695 51.82H75.8775V52.82H81.6695V51.82ZM75.3775 52.32V53.216H76.3775V52.32H75.3775ZM75.8775 53.716H77.3175V52.716H75.8775V53.716ZM76.9412 53.5453L77.8372 54.5693L78.5898 53.9107L77.6938 52.8867L76.9412 53.5453ZM77.799 53.9604L75.015 58.0884L75.844 58.6476L78.628 54.5196L77.799 53.9604ZM75.4295 57.868H75.3655V58.868H75.4295V57.868ZM75.7726 58.0777L72.8286 53.9497L72.0144 54.5303L74.9584 58.6583L75.7726 58.0777ZM72.9215 54.24V53.216H71.9215V54.24H72.9215ZM72.4215 53.716H74.2455V52.716H72.4215V53.716ZM74.7455 53.216V52.32H73.7455V53.216H74.7455ZM74.2455 51.82H67.1735V52.82H74.2455V51.82ZM66.6735 52.32V52.896H67.6735V52.32H66.6735ZM66.8519 53.2789L68.4519 54.6229L69.0951 53.8571L67.4951 52.5131L66.8519 53.2789ZM68.368 54.5326L72.848 60.7406L73.659 60.1554L69.1789 53.9474L68.368 54.5326ZM72.86 60.1395L68.444 65.7715L69.231 66.3885L73.647 60.7565L72.86 60.1395ZM68.5674 65.6592L66.4234 67.0352L66.9636 67.8768L69.1076 66.5008L68.5674 65.6592ZM66.1935 67.456V68H67.1935V67.456H66.1935ZM82.512 75.456L82.0687 75.6873L82.3038 76.1379L82.7505 75.8955L82.512 75.456ZM82.544 44.288L82.7883 43.8517L82.3621 43.6131L82.1135 44.0336L82.544 44.288ZM82.128 44.992L81.6975 44.7376L81.4658 45.1298L81.8347 45.397L82.128 44.992ZM82.128 74.72L81.8272 74.3206L81.4887 74.5756L81.6847 74.9513L82.128 74.72ZM82.7505 75.8955C88.1991 72.9386 91.332 66.0216 91.332 60.064H90.332C90.332 65.7544 87.3209 72.2774 82.2735 75.0165L82.7505 75.8955ZM91.332 60.064C91.332 53.9607 88.5936 47.1027 82.7883 43.8517L82.2997 44.7243C87.6945 47.7453 90.332 54.1993 90.332 60.064H91.332ZM82.1135 44.0336L81.6975 44.7376L82.5585 45.2464L82.9745 44.5424L82.1135 44.0336ZM81.8347 45.397C86.3008 48.631 88.348 54.5928 88.348 60.064H89.348C89.348 54.3992 87.2352 48.073 82.4213 44.587L81.8347 45.397ZM88.348 60.064C88.348 65.2109 86.719 70.6363 81.8272 74.3206L82.4288 75.1194C87.649 71.1877 89.348 65.4131 89.348 60.064H88.348ZM81.6847 74.9513L82.0687 75.6873L82.9553 75.2247L82.5713 74.4887L81.6847 74.9513Z" fill="#C8D2D7"/>
<rect x="80" width="26" height="96" rx="12" fill="url(#paint0_linear_2805_63207)"/>
<rect y="59" width="106" height="37" rx="12" fill="url(#paint1_linear_2805_63207)"/>
</g>
<defs>
<linearGradient id="paint0_linear_2805_63207" x1="106" y1="47.7725" x2="80" y2="47.7725" gradientUnits="userSpaceOnUse">
<stop stop-color="#F0F4FA"/>
<stop offset="1" stop-color="#F0F4FA" stop-opacity="0"/>
</linearGradient>
<linearGradient id="paint1_linear_2805_63207" x1="53" y1="96" x2="53" y2="59" gradientUnits="userSpaceOnUse">
<stop stop-color="#F0F4FA"/>
<stop offset="1" stop-color="#F0F4FA" stop-opacity="0"/>
</linearGradient>
</defs>
</svg>
