<svg width="106" height="96" viewBox="0 0 106 96" fill="none" xmlns="http://www.w3.org/2000/svg">
<mask id="mask0_2805_63231" style="mask-type:alpha" maskUnits="userSpaceOnUse" x="0" y="0" width="106" height="96">
<rect width="106" height="96" rx="12" fill="#E6E1DC"/>
</mask>
<g mask="url(#mask0_2805_63231)">
<rect width="106" height="96" rx="12" fill="#F0F4FA"/>
<rect x="62.3853" y="28.4026" width="40.4426" height="40.4426" transform="rotate(45 62.3853 28.4026)" fill="#F0F4FA" stroke="#C8D2D7" stroke-width="3"/>
<line x1="62.5" y1="27" x2="62.5" y2="86" stroke="#C8D2D7" stroke-width="3"/>
<circle cx="62.5" cy="27.5" r="9.5" fill="white"/>
<circle cx="62.5" cy="56.5" r="9.5" fill="white"/>
<circle cx="91.5" cy="56.5" r="9.5" transform="rotate(90 91.5 56.5)" fill="white"/>
<ellipse cx="62.5" cy="86" rx="9.5" ry="10" fill="white"/>
<circle cx="32.5" cy="56.5" r="9.5" transform="rotate(90 32.5 56.5)" fill="white"/>
<rect x="71" width="35" height="96" rx="12" fill="url(#paint0_linear_2805_63231)"/>
<rect y="59" width="106" height="37" rx="12" fill="url(#paint1_linear_2805_63231)"/>
</g>
<defs>
<linearGradient id="paint0_linear_2805_63231" x1="106" y1="47.7725" x2="71" y2="47.7725" gradientUnits="userSpaceOnUse">
<stop stop-color="#F0F4FA"/>
<stop offset="1" stop-color="#F0F4FA" stop-opacity="0"/>
</linearGradient>
<linearGradient id="paint1_linear_2805_63231" x1="53" y1="96" x2="53" y2="59" gradientUnits="userSpaceOnUse">
<stop stop-color="#F0F4FA"/>
<stop offset="1" stop-color="#F0F4FA" stop-opacity="0"/>
</linearGradient>
</defs>
</svg>
