<svg width="88" height="52" viewBox="0 0 88 52" fill="none" xmlns="http://www.w3.org/2000/svg">
<path d="M0.449128 38.3227C-0.561076 40.3574 0.336884 42.8444 2.35729 43.8618C4.3777 44.8792 6.84709 43.9748 7.85729 41.9401L9.54096 38.5488L6.06137 26.9053L0.449128 38.3227Z" fill="#B5B5B5"/>
<path d="M23.4592 0.452218C21.4388 -0.565174 18.9694 0.339174 17.9592 2.37396L11.3368 16.0522L14.8164 27.6957L25.3674 6.10439C26.3776 3.95657 25.5919 1.46961 23.4592 0.452218Z" fill="#B5B5B5"/>
<path d="M12.6831 49.0613C13.3566 51.2091 15.7138 52.4526 17.8464 51.7743C19.9791 51.0961 21.2138 48.7221 20.6525 46.5743L14.928 27.583L9.54028 38.5482L12.6831 49.0613Z" fill="#31302F"/>
<path d="M8.97945 8.36457C8.30598 6.21675 5.94883 4.97327 3.81618 5.53849C1.68353 6.21675 0.448834 8.59066 1.01006 10.7385L5.94883 26.9037L11.3366 15.9385L8.97945 8.36457Z" fill="#31302F"/>
<path d="M5.94824 26.9049L9.54008 38.6614L14.8156 27.6962L11.336 16.0527L5.94824 26.9049Z" fill="#636262"/>
<path d="M30.1933 31.4239H22.6729C22.6729 31.3109 22.6729 31.0848 22.6729 30.9718C22.6729 29.05 23.4586 27.8065 25.2545 26.6761C26.1524 25.9979 26.8259 25.6587 27.0504 25.5457C27.2749 25.3196 27.4994 25.0935 27.6116 24.8674C27.7239 24.6413 27.8361 24.3022 27.8361 23.9631C27.8361 23.1718 27.2749 22.6065 26.4892 22.6065C25.479 22.6065 24.9177 23.2848 24.9177 24.6413H22.6729C22.6729 23.1718 23.0096 22.3805 23.9075 21.7022C24.581 21.137 25.479 20.7979 26.4892 20.7979C28.7341 20.7979 30.1933 22.0413 30.1933 23.85C30.1933 25.3196 29.4075 26.337 27.3871 27.6935C25.8157 28.7109 25.5912 28.937 25.479 29.6152H30.1933V31.4239Z" fill="#31302F"/>
<path d="M33.3372 28.2587C33.3372 29.2761 34.0107 29.9544 35.0209 29.9544C36.0311 29.9544 36.5923 29.3892 36.5923 28.5979C36.5923 27.5805 35.9188 27.1283 34.3474 27.1283H34.1229V25.3196H34.3474C35.9188 25.3196 36.48 24.9805 36.48 23.9631C36.48 23.1718 35.9188 22.6065 35.0209 22.6065C34.0107 22.6065 33.4494 23.1718 33.4494 24.3022H31.2045C31.3168 22.9457 31.5413 22.2674 32.4392 21.5892C33.1127 21.0239 34.0107 20.7979 35.1331 20.7979C37.378 20.7979 38.8372 21.9283 38.8372 23.737C38.8372 24.9805 38.1637 25.8848 36.8168 26.2239C37.2658 26.337 37.378 26.337 37.7147 26.5631C38.5004 27.0152 38.9494 27.8065 38.9494 28.8239C38.9494 30.7457 37.4902 31.8761 35.1331 31.8761C32.5515 31.8761 31.0923 30.5196 31.0923 28.1457H33.3372C33.3372 28.0326 33.3372 28.1457 33.3372 28.2587Z" fill="#31302F"/>
<path d="M43.5516 23.1729C44.6741 23.1729 45.6843 23.512 46.2455 24.0772C46.8067 24.6424 47.0312 25.3207 47.0312 26.7902C47.0312 26.9033 47.0312 27.2424 47.0312 27.9207C47.0312 28.1468 47.0312 28.4859 47.0312 28.712C47.0312 29.9555 47.1435 30.8598 47.2557 31.425H45.3475C45.2353 30.9729 45.2353 30.8598 45.2353 30.5207C45.2353 30.4076 45.2353 30.4076 45.2353 30.1815C44.6741 31.1989 43.8884 31.6511 42.5414 31.6511C40.8577 31.6511 39.623 30.6337 39.623 29.1642C39.623 28.5989 39.8475 28.0337 40.1843 27.5815C40.6333 27.1294 41.1945 26.9033 42.3169 26.6772C43.2149 26.5642 44.1128 26.3381 44.7863 26.3381C44.7863 25.2076 44.3373 24.7555 43.4394 24.7555C42.5414 24.7555 42.0924 25.2076 42.0924 25.8859H39.8475C40.072 24.1902 41.419 23.1729 43.5516 23.1729ZM44.6741 27.9207L43.8884 28.0337C42.5414 28.2598 41.9802 28.5989 41.9802 29.1642C41.9802 29.7294 42.4292 30.0685 43.2149 30.0685C44.3373 30.0685 44.8986 29.2772 45.0108 27.8076L44.6741 27.9207Z" fill="#31302F"/>
<path d="M50.6223 24.4146C51.1835 23.6233 51.9692 23.2842 52.9794 23.2842C54.1019 23.2842 55.1121 23.8494 55.4488 24.8668C55.6733 25.319 55.6733 25.7711 55.6733 27.0146V31.5364H53.4284V26.7885C53.4284 25.545 53.0917 24.9798 52.1937 24.9798C51.1835 24.9798 50.7345 25.7711 50.7345 27.3537V31.5364H48.4896V23.3972H50.6223V24.4146Z" fill="#31302F"/>
<path d="M64.4286 31.4259H62.296V30.4085C61.7347 31.1998 60.949 31.652 59.9388 31.652C58.0307 31.652 56.6837 29.9564 56.6837 27.4694C56.6837 24.9824 57.9184 23.2868 59.8266 23.2868C60.949 23.2868 61.6225 23.6259 62.1837 24.5303V20.3477H64.4286V31.4259ZM60.6123 29.8433C61.6225 29.8433 62.296 28.939 62.296 27.4694C62.296 25.9998 61.6225 25.0955 60.6123 25.0955C59.6021 25.0955 58.9286 25.9998 58.9286 27.4694C58.9286 28.8259 59.6021 29.8433 60.6123 29.8433Z" fill="#31302F"/>
<path d="M78.5715 31.4259H76.3266V22.4955L73.6327 31.4259H71.2756L68.5817 22.4955V31.4259H66.3368V20.3477H70.0409L72.6225 28.7129L75.0919 20.3477H78.5715V31.4259Z" fill="#31302F"/>
<path d="M84.0712 31.6511C81.6018 31.6511 80.0304 29.9555 80.0304 27.3555C80.0304 24.8685 81.6018 23.1729 84.0712 23.1729C86.5406 23.1729 87.9998 24.8685 87.9998 27.5815C87.9998 27.6946 87.9998 27.8076 87.9998 28.1468H82.3875C82.3875 29.2772 83.061 29.9555 84.1835 29.9555C84.9692 29.9555 85.4182 29.6163 85.6426 29.0511H87.9998C87.4386 30.7468 86.0916 31.6511 84.0712 31.6511ZM85.6426 26.5642C85.6426 25.5468 84.9692 24.8685 83.959 24.8685C82.9488 24.8685 82.3875 25.4337 82.2753 26.5642H85.6426Z" fill="#31302F"/>
</svg>
