<svg width="70" height="42" viewBox="0 0 70 42" fill="none" xmlns="http://www.w3.org/2000/svg">
<g clip-path="url(#clip0_2_810)">
<path d="M19.8947 15.3231C19.8947 16.1769 19.9868 16.8692 20.148 17.3769C20.3322 17.8846 20.5625 18.4385 20.8849 19.0385C21 19.2231 21.046 19.4077 21.046 19.5692C21.046 19.8 20.9079 20.0308 20.6085 20.2615L19.1579 21.2308C18.9507 21.3692 18.7434 21.4385 18.5592 21.4385C18.3289 21.4385 18.0987 21.3231 17.8684 21.1154C17.546 20.7692 17.2697 20.4 17.0395 20.0308C16.8092 19.6385 16.5789 19.2 16.3257 18.6692C14.5296 20.7923 12.273 21.8538 9.55591 21.8538C7.6217 21.8538 6.07894 21.3 4.95065 20.1923C3.82236 19.0846 3.2467 17.6077 3.2467 15.7615C3.2467 13.8 3.93749 12.2077 5.3421 11.0077C6.7467 9.80769 8.61183 9.20769 10.9835 9.20769C11.7664 9.20769 12.5724 9.27692 13.4243 9.39231C14.2763 9.50769 15.1513 9.69231 16.0724 9.9V8.21538C16.0724 6.46154 15.7039 5.23846 14.9901 4.52308C14.2533 3.80769 13.0099 3.46154 11.2368 3.46154C10.4309 3.46154 9.60197 3.55384 8.74999 3.76154C7.89802 3.96923 7.06907 4.22308 6.26315 4.54615C5.89473 4.70769 5.61841 4.8 5.45723 4.84615C5.29605 4.89231 5.18091 4.91538 5.08881 4.91538C4.76644 4.91538 4.60526 4.68461 4.60526 4.2V3.06923C4.60526 2.7 4.65131 2.42308 4.76644 2.26154C4.88157 2.1 5.08881 1.93846 5.41118 1.77692C6.2171 1.36154 7.1842 1.01538 8.31249 0.738461C9.44078 0.438461 10.6382 0.299999 11.9046 0.299999C14.6447 0.299999 16.648 0.923076 17.9375 2.16923C19.2039 3.41538 19.8487 5.30769 19.8487 7.84615V15.3231H19.8947ZM10.546 18.8308C11.3059 18.8308 12.0888 18.6923 12.9178 18.4154C13.7467 18.1385 14.4835 17.6308 15.1053 16.9385C15.4737 16.5 15.75 16.0154 15.8882 15.4615C16.0263 14.9077 16.1184 14.2385 16.1184 13.4538V12.4846C15.4507 12.3231 14.7368 12.1846 14 12.0923C13.2632 12 12.5493 11.9538 11.8355 11.9538C10.2928 11.9538 9.16447 12.2538 8.4046 12.8769C7.64473 13.5 7.27631 14.3769 7.27631 15.5308C7.27631 16.6154 7.55262 17.4231 8.12828 17.9769C8.68091 18.5538 9.48684 18.8308 10.546 18.8308ZM29.0362 21.3231C28.6217 21.3231 28.3454 21.2538 28.1612 21.0923C27.977 20.9538 27.8158 20.6308 27.6776 20.1923L22.2664 2.35385C22.1283 1.89231 22.0592 1.59231 22.0592 1.43077C22.0592 1.06154 22.2434 0.853845 22.6118 0.853845H24.8684C25.3059 0.853845 25.6053 0.923076 25.7664 1.08461C25.9507 1.22308 26.0888 1.54615 26.227 1.98461L30.0954 17.2615L33.6875 1.98461C33.8026 1.52308 33.9408 1.22308 34.125 1.08461C34.3092 0.946153 34.6316 0.853845 35.046 0.853845H36.8881C37.3256 0.853845 37.625 0.923076 37.8092 1.08461C37.9934 1.22308 38.1546 1.54615 38.2467 1.98461L41.8849 17.4462L45.8684 1.98461C46.0066 1.52308 46.1678 1.22308 46.3289 1.08461C46.5131 0.946153 46.8125 0.853845 47.227 0.853845H49.3684C49.7368 0.853845 49.9441 1.03846 49.9441 1.43077C49.9441 1.54615 49.921 1.66154 49.898 1.8C49.875 1.93846 49.8289 2.12308 49.7368 2.37692L44.1875 20.2154C44.0493 20.6769 43.8881 20.9769 43.7039 21.1154C43.5197 21.2538 43.2204 21.3462 42.8289 21.3462H40.8487C40.4112 21.3462 40.1118 21.2769 39.9276 21.1154C39.7434 20.9538 39.5822 20.6538 39.4901 20.1923L35.921 5.30769L32.375 20.1692C32.2599 20.6308 32.1217 20.9308 31.9375 21.0923C31.7533 21.2538 31.4309 21.3231 31.0164 21.3231H29.0362ZM58.625 21.9462C57.4276 21.9462 56.2303 21.8077 55.0789 21.5308C53.9276 21.2538 53.0296 20.9538 52.4309 20.6077C52.0625 20.4 51.8092 20.1692 51.7171 19.9615C51.625 19.7538 51.5789 19.5231 51.5789 19.3154V18.1385C51.5789 17.6538 51.7631 17.4231 52.1085 17.4231C52.2467 17.4231 52.3849 17.4462 52.523 17.4923C52.6612 17.5385 52.8684 17.6308 53.0987 17.7231C53.8816 18.0692 54.7335 18.3462 55.6316 18.5308C56.5526 18.7154 57.4506 18.8077 58.3717 18.8077C59.8224 18.8077 60.9506 18.5538 61.7335 18.0462C62.5164 17.5385 62.9309 16.8 62.9309 15.8538C62.9309 15.2077 62.7237 14.6769 62.3092 14.2385C61.8947 13.8 61.1118 13.4077 59.9835 13.0385L56.6447 12C54.9638 11.4692 53.7204 10.6846 52.9605 9.64615C52.2006 8.63077 51.8092 7.5 51.8092 6.3C51.8092 5.33077 52.0164 4.47692 52.4309 3.73846C52.8454 3 53.398 2.35385 54.0888 1.84615C54.7796 1.31538 55.5625 0.923076 56.4835 0.646153C57.4046 0.36923 58.3717 0.253845 59.3849 0.253845C59.8914 0.253845 60.421 0.276922 60.9276 0.346153C61.4572 0.415384 61.9408 0.507691 62.4243 0.599999C62.8849 0.715384 63.3224 0.830768 63.7368 0.96923C64.1513 1.10769 64.4737 1.24615 64.7039 1.38461C65.0263 1.56923 65.2566 1.75385 65.3947 1.96154C65.5329 2.14615 65.602 2.4 65.602 2.72308V3.80769C65.602 4.29231 65.4178 4.54615 65.0724 4.54615C64.8881 4.54615 64.5888 4.45385 64.1974 4.26923C62.8849 3.66923 61.4112 3.36923 59.7763 3.36923C58.4638 3.36923 57.4276 3.57692 56.7138 4.01538C56 4.45385 55.6316 5.12308 55.6316 6.06923C55.6316 6.71538 55.8618 7.26923 56.3224 7.70769C56.7829 8.14615 57.6349 8.58462 58.8553 8.97692L62.125 10.0154C63.7829 10.5462 64.9802 11.2846 65.6941 12.2308C66.4079 13.1769 66.7533 14.2615 66.7533 15.4615C66.7533 16.4538 66.546 17.3538 66.1546 18.1385C65.7401 18.9231 65.1875 19.6154 64.4737 20.1692C63.7599 20.7462 62.9079 21.1615 61.9178 21.4615C60.8816 21.7846 59.7993 21.9462 58.625 21.9462Z" fill="#31302F"/>
<path fill-rule="evenodd" clip-rule="evenodd" d="M62.977 33.1613C55.4013 38.769 44.3947 41.7459 34.9309 41.7459C21.6678 41.7459 9.7171 36.8305 0.690786 28.6613C-0.02303 28.0151 0.621707 27.1382 1.47368 27.6459C11.2368 33.3228 23.2796 36.7613 35.7368 36.7613C44.1414 36.7613 53.375 35.0074 61.8717 31.4074C63.1382 30.8305 64.2204 32.2382 62.977 33.1613Z" fill="#31302F"/>
<path fill-rule="evenodd" clip-rule="evenodd" d="M66.1316 29.5613C65.1645 28.3151 59.7303 28.9613 57.2665 29.2613C56.5296 29.3536 56.4145 28.7074 57.0822 28.2228C61.4112 25.1767 68.5263 26.0536 69.3553 27.069C70.1842 28.1074 69.125 35.2382 65.0724 38.6536C64.4507 39.1844 63.852 38.9074 64.1283 38.2151C65.0493 35.9305 67.0987 30.7844 66.1316 29.5613Z" fill="#31302F"/>
</g>
<defs>
<clipPath id="clip0_2_810">
<rect width="70" height="42" fill="white"/>
</clipPath>
</defs>
</svg>
