<svg width="59" height="27" viewBox="0 0 59 27" fill="none" xmlns="http://www.w3.org/2000/svg">
<g clip-path="url(#clip0_2937_62302)">
<path d="M18.3556 7.71526H13.7667C12.2019 7.71526 10.7012 8.32483 9.59474 9.40986C8.48827 10.4949 7.86667 11.9665 7.86667 13.501C7.86667 15.0354 8.48827 16.5071 9.59474 17.5921C10.7012 18.6771 12.2019 19.2867 13.7667 19.2867H18.8997C19.1031 19.2867 19.2982 19.2074 19.442 19.0664C19.5859 18.9253 19.6667 18.734 19.6667 18.5345V5.25312C19.6681 4.09587 20.0592 2.97146 20.7793 2.0546C21.4993 1.13775 22.508 0.479776 23.6487 0.182918C24.7893 -0.11394 25.998 -0.033063 27.0869 0.412983C28.1758 0.85903 29.084 1.64527 29.6704 2.64955L35.4 12.4788V5.25312C35.4014 4.09587 35.7925 2.97146 36.5126 2.0546C37.2327 1.13775 38.2414 0.479776 39.382 0.182918C40.5226 -0.11394 41.7313 -0.033063 42.8202 0.412983C43.9092 0.85903 44.8174 1.64527 45.4038 2.64955L51.1333 12.4788V0.000976562H54.4111L55.0667 0.643834L55.7222 0.000976562H59V21.7488C58.9986 22.9061 58.6075 24.0305 57.8874 24.9473C57.1673 25.8642 56.1586 26.5222 55.018 26.819C53.8774 27.1159 52.6687 27.035 51.5798 26.589C50.4908 26.1429 49.5826 25.3567 48.9962 24.3524L43.2667 14.5231V21.7488C43.2653 22.9061 42.8742 24.0305 42.1541 24.9473C41.434 25.8642 40.4253 26.5222 39.2847 26.819C38.144 27.1159 36.9354 27.035 35.8464 26.589C34.7575 26.1429 33.8493 25.3567 33.2629 24.3524L27.5333 14.5231V21.7488C27.5333 23.1418 26.9691 24.4777 25.9646 25.4627C24.9602 26.4476 23.5979 27.001 22.1774 27.001H13.7667C10.1155 27.001 6.61391 25.5787 4.03216 23.0469C1.45041 20.5152 0 17.0814 0 13.501C0 9.92055 1.45041 6.48678 4.03216 3.95504C6.61391 1.42329 10.1155 0.000976563 13.7667 0.000976562H18.3556V3.21526L17.7 3.85812L18.3556 4.50098V7.71526Z" fill="#31302F"/>
<path d="M18.3558 3.85714H13.7669C11.159 3.85714 8.65782 4.87308 6.81371 6.68147C4.9696 8.48986 3.93359 10.9426 3.93359 13.5C3.93359 16.0574 4.9696 18.5101 6.81371 20.3185C8.65782 22.1269 11.159 23.1429 13.7669 23.1429H22.1777C22.3645 23.1429 22.5495 23.1068 22.7221 23.0367C22.8947 22.9666 23.0515 22.8638 23.1836 22.7343C23.3157 22.6047 23.4205 22.4509 23.492 22.2817C23.5635 22.1125 23.6003 21.931 23.6003 21.7479V5.25214C23.6008 4.94518 23.7046 4.64696 23.8955 4.40371C24.0864 4.16045 24.3538 3.98574 24.6563 3.90665C24.9587 3.82756 25.2793 3.8485 25.5684 3.96623C25.8575 4.08397 26.0989 4.29192 26.2553 4.55786L36.6786 22.4421C36.8349 22.7081 37.0763 22.916 37.3654 23.0338C37.6545 23.1515 37.9751 23.1724 38.2776 23.0934C38.58 23.0143 38.8474 22.8395 39.0384 22.5963C39.2293 22.353 39.3331 22.0548 39.3336 21.7479V5.25214C39.3341 4.94518 39.4379 4.64696 39.6288 4.40371C39.8197 4.16045 40.0872 3.98574 40.3896 3.90665C40.6921 3.82756 41.0127 3.8485 41.3018 3.96623C41.5908 4.08397 41.8323 4.29192 41.9886 4.55786L52.4119 22.4421C52.5683 22.7081 52.8097 22.916 53.0988 23.0338C53.3878 23.1515 53.7085 23.1724 54.0109 23.0934C54.3134 23.0143 54.5808 22.8395 54.7717 22.5963C54.9626 22.353 55.0664 22.0548 55.0669 21.7479V0" stroke="white" stroke-width="0.962609"/>
</g>
<defs>
<clipPath id="clip0_2937_62302">
<rect width="59" height="27" fill="white"/>
</clipPath>
</defs>
</svg>
