<svg width="107" height="27" viewBox="0 0 107 27" fill="none" xmlns="http://www.w3.org/2000/svg">
<g clip-path="url(#clip0_2937_62233)">
<path d="M43.0199 9.43474C41.7392 10.7899 41.7392 10.7899 41.7392 10.7899C40.8767 9.92991 39.9097 9.43474 38.6291 9.43474C36.4075 9.43474 34.7348 11.1809 34.7348 13.6307C34.7348 16.0805 36.4075 17.8266 38.6291 17.8266C39.9097 17.8266 41.0074 17.2793 41.8176 16.4714C43.0199 17.8266 43.0199 17.8266 43.0199 17.8266C41.9744 19.0255 40.4847 19.651 38.7336 19.651C35.0746 19.651 32.6962 17.0448 32.6962 13.6307C32.6962 10.1384 35.0746 7.53223 38.7336 7.53223C40.4586 7.53223 41.9744 8.23589 43.0199 9.43474Z" fill="#31302F"/>
<path d="M57.3158 13.6307C57.3158 17.0448 54.7022 19.651 51.2 19.651C47.6194 19.651 45.0059 17.0448 45.0059 13.6307C45.0059 10.1384 47.6194 7.53223 51.2 7.53223C54.6761 7.53223 57.3158 10.1384 57.3158 13.6307ZM47.0706 13.6307C47.0706 16.0805 48.8217 17.8266 51.2 17.8266C53.5 17.8266 55.2511 16.0805 55.2511 13.6307C55.2511 11.1809 53.5 9.43474 51.2 9.43474C48.7956 9.43474 47.0706 11.1809 47.0706 13.6307Z" fill="#31302F"/>
<path d="M65.8874 19.4171H63.509L58.5693 7.8457H60.7909L64.6851 17.4364L68.5793 7.8457H70.7225L65.8874 19.4171Z" fill="#31302F"/>
<path d="M83.2683 13.5525C83.2683 13.8652 83.2683 14.0998 83.2683 14.3343C74.1207 14.3343 74.1207 14.3343 74.1207 14.3343C74.3559 16.706 76.0286 17.9048 78.015 17.9048C79.4524 17.9048 80.6285 17.4357 81.674 16.5496C82.7194 17.9048 82.7194 17.9048 82.7194 17.9048C81.2819 19.26 79.7138 19.651 77.9627 19.651C74.4605 19.651 72.0037 17.2793 72.0037 13.6307C72.0037 10.0602 74.4605 7.53223 77.8059 7.53223C80.9683 7.53223 83.2683 10.0602 83.2683 13.5525ZM74.1469 12.6664C81.3081 12.6664 81.3081 12.6664 81.3081 12.6664C81.0729 10.6857 79.7138 9.33049 77.8059 9.33049C75.7411 9.35655 74.4605 10.6857 74.1469 12.6664Z" fill="#31302F"/>
<path d="M98.2181 13.6307C98.2181 17.0448 95.6045 19.651 92.1023 19.651C88.5217 19.651 85.9081 17.0448 85.9081 13.6307C85.9081 10.1384 88.5217 7.53223 92.1023 7.53223C95.6045 7.53223 98.2181 10.1384 98.2181 13.6307ZM87.9729 13.6307C87.9729 16.0805 89.724 17.8266 92.1023 17.8266C94.4023 17.8266 96.1534 16.0805 96.1534 13.6307C96.1534 11.1809 94.4023 9.43474 92.1023 9.43474C89.724 9.43474 87.9729 11.1809 87.9729 13.6307Z" fill="#31302F"/>
<path d="M102.975 7.87207H100.623V8.31512H101.564V11.208H102.061V8.31512H102.975V7.87207Z" fill="#31302F"/>
<path d="M107 7.87207H106.477L105.51 9.95701L104.543 7.87207H104.021V11.208H104.543V8.96667L105.327 10.6086H105.72L106.477 8.96667V11.208H107V7.87207Z" fill="#31302F"/>
<path d="M23.0256 3.91037C20.6995 1.59087 17.7462 0.28778 14.6883 0.00110029C14.3224 -0.0249615 14.1133 0.418089 14.3747 0.678707L19.262 5.55226C19.2882 5.57832 19.262 5.63044 19.2098 5.60438C17.8246 4.58797 16.2042 4.01461 14.5576 3.85824C14.2962 3.83218 14.1656 4.14492 14.3485 4.32736L17.6678 7.6372C17.6939 7.66326 17.6678 7.71539 17.6155 7.68932C16.7007 7.06384 15.6553 6.69898 14.5837 6.59473C14.4008 6.56867 14.2962 6.80322 14.4269 6.90747L20.0723 12.5368C20.2029 12.6671 20.412 12.5629 20.3859 12.3804C20.2813 11.3119 19.9154 10.2955 19.2882 9.38334C19.262 9.35728 19.3143 9.30516 19.3405 9.33122L22.529 12.5108C22.712 12.6932 23.0256 12.5368 22.9995 12.3023C22.8427 10.6604 22.2677 9.0706 21.2484 7.66326C21.2222 7.6372 21.2745 7.58508 21.3006 7.61114L26.2403 12.5108C26.5017 12.7714 26.946 12.5629 26.9198 12.198C26.6585 9.17485 25.3517 6.22987 23.0256 3.91037Z" fill="#31302F"/>
<path d="M3.92068 3.91037C6.24677 1.59087 9.20011 0.28778 12.2319 0.00110029C12.5978 -0.0249615 12.8069 0.418089 12.5455 0.678707L7.68424 5.55226C7.6581 5.57832 7.68424 5.63044 7.73651 5.60438C9.12171 4.58797 10.7421 4.01461 12.3887 3.85824C12.65 3.83218 12.7807 4.14492 12.5978 4.32736L9.25239 7.6372C9.22625 7.66326 9.25239 7.71539 9.30466 7.68932C10.2194 7.06384 11.2648 6.69898 12.3364 6.59473C12.5194 6.56867 12.6239 6.80322 12.4932 6.90747L6.82176 12.5629C6.69108 12.6932 6.48199 12.5889 6.50813 12.4065C6.61267 11.338 6.97857 10.3216 7.60583 9.4094C7.63197 9.38334 7.57969 9.33122 7.55356 9.35728L4.33885 12.5368C4.1559 12.7192 3.84227 12.5629 3.86841 12.3283C4.02522 10.6864 4.60021 9.09666 5.61951 7.68932C5.64564 7.66326 5.59337 7.61114 5.56724 7.6372L0.679841 12.5108C0.418483 12.7714 -0.0258258 12.5629 0.000309961 12.198C0.287804 9.17485 1.59459 6.22987 3.92068 3.91037Z" fill="#31302F"/>
<path d="M3.9208 23.1189C6.24689 25.4384 9.20024 26.7415 12.2581 27.0281C12.624 27.0542 12.8331 26.6111 12.5718 26.3505L7.68436 21.477C7.65822 21.4509 7.68436 21.3988 7.73663 21.4249C9.12183 22.4413 10.7422 23.0146 12.3888 23.171C12.6502 23.1971 12.7808 22.8843 12.5979 22.7019L9.25251 19.366C9.22637 19.3399 9.25251 19.2878 9.30478 19.3139C10.2195 19.9393 11.265 20.3042 12.3365 20.4084C12.5195 20.4345 12.624 20.2 12.4933 20.0957L6.82188 14.4403C6.6912 14.31 6.48211 14.4142 6.50825 14.5967C6.61279 15.6652 6.97869 16.6816 7.60595 17.5938C7.63209 17.6198 7.57982 17.672 7.55368 17.6459L4.33898 14.4664C4.15603 14.2839 3.8424 14.4403 3.86853 14.6749C4.02535 16.3167 4.60033 17.9065 5.61963 19.3139C5.64577 19.3399 5.59349 19.392 5.56736 19.366L0.679963 14.4924C0.418605 14.2318 -0.0257038 14.4403 0.000432031 14.8052C0.287926 17.8544 1.59472 20.7994 3.9208 23.1189Z" fill="#31302F"/>
<path d="M23.0256 23.1172C20.6995 25.4367 17.7462 26.7398 14.6883 27.0265C14.3224 27.0526 14.1133 26.6095 14.3747 26.3489L19.262 21.4753C19.2882 21.4493 19.262 21.3971 19.2098 21.4232C17.8246 22.4136 16.2042 23.013 14.5576 23.1433C14.2962 23.1693 14.1656 22.8566 14.3485 22.6742L17.6678 19.3643C17.6939 19.3383 17.6678 19.2861 17.6155 19.3122C16.7007 19.9377 15.6553 20.3026 14.5837 20.4068C14.4008 20.4329 14.2962 20.1983 14.4269 20.0941L20.0723 14.4647C20.2029 14.3344 20.412 14.4387 20.3859 14.6211C20.2813 15.6896 19.9154 16.706 19.2882 17.6182C19.262 17.6442 19.3143 17.6964 19.3405 17.6703L22.529 14.4908C22.712 14.3083 23.0256 14.4647 22.9995 14.6993C22.8427 16.3412 22.2677 17.9309 21.2484 19.3383C21.2222 19.3643 21.2745 19.4165 21.3006 19.3904L26.188 14.5168C26.4494 14.2562 26.8937 14.4647 26.8676 14.8296C26.6585 17.8527 25.3517 20.7977 23.0256 23.1172Z" fill="#31302F"/>
</g>
<defs>
<clipPath id="clip0_2937_62233">
<rect width="107" height="27" fill="white"/>
</clipPath>
</defs>
</svg>
