<svg width="102" height="27" viewBox="0 0 102 27" fill="none" xmlns="http://www.w3.org/2000/svg">
<g clip-path="url(#clip0_2937_62265)">
<path d="M14.0253 25.2606C12.4909 25.5245 10.9295 25.6037 9.31437 25.8144L4.38789 11.6817V26.421C2.85351 26.5791 1.4537 26.79 0 27.001V0.000976563H4.09195L9.6912 15.3205V0.000976563H14.0253V25.2606ZM22.5051 9.88868C24.1743 9.88868 26.7317 9.80955 28.2661 9.80955V14.0282C26.3546 14.0282 24.1204 14.0282 22.5051 14.1073V20.3828C25.0357 20.2247 27.5662 20.0136 30.1235 19.9344V23.9947L18.1978 24.9178V0.000976563H30.1235V4.21973H22.5051V9.88868V9.88868ZM46.1409 4.21983H41.6722V23.626C40.2185 23.626 38.7648 23.626 37.3652 23.6786V4.21983H32.8965V0.000976562H46.1411L46.1409 4.21983V4.21983ZM53.14 9.59872H59.0356V13.8174H53.14V23.3888H48.9133V0.000976563H60.9469V4.21973H53.14V9.59872V9.59872ZM67.946 19.6973C70.3958 19.7498 72.8723 19.9347 75.2683 20.0663V24.2324C71.4188 23.9949 67.5692 23.758 63.6389 23.6786V0.000976563H67.946V19.6973ZM78.9025 24.5225C80.2754 24.6017 81.7291 24.6808 83.1289 24.8388V0.000976563H78.9025V24.5225V24.5225ZM102 0.000976563L96.5351 12.8418L102 27.001C100.385 26.79 98.7695 26.5 97.1542 26.2363L94.0585 18.4318L90.9092 25.6037C89.3475 25.3398 87.84 25.2606 86.2789 25.0497L91.8244 12.6835L86.8171 0.000976563H91.4472L94.2738 7.09377L97.289 0.000976563H102V0.000976563Z" fill="#31302F"/>
</g>
<defs>
<clipPath id="clip0_2937_62265">
<rect width="102" height="27" fill="white"/>
</clipPath>
</defs>
</svg>
