<svg width="110" height="29" viewBox="0 0 110 29" fill="none" xmlns="http://www.w3.org/2000/svg">
<g clip-path="url(#clip0_2_778)">
<path d="M0.448466 14.1906C0.405472 21.8238 6.56131 28.0441 14.1927 28.0853C21.8264 28.1271 28.0449 21.9719 28.0843 14.3393C28.1255 6.70679 21.9727 0.489441 14.3407 0.448242H14.2637C6.66639 0.448242 0.489073 6.58616 0.448466 14.1906Z" fill="#31302F"/>
<path d="M18.7764 13.2538V20.6057H9.75608V13.2538L7.38308 13.2526L14.2674 6.40349L21.1512 13.2526L18.7764 13.2538ZM23.3277 12.3688L23.3283 12.3682L15.1195 4.19112C14.9075 3.96243 14.6036 3.82031 14.2674 3.82031H14.2662C13.9306 3.82031 13.6267 3.9625 13.4147 4.19112L5.20476 12.3682L5.20535 12.3688C4.88887 12.6895 4.69238 13.129 4.69238 13.6151C4.69238 14.5914 5.48301 15.3856 6.45932 15.3885L7.58909 15.3869C7.58909 15.3869 7.58741 21.5946 7.58741 21.609C7.58741 22.2491 8.10274 22.7668 8.73988 22.7722H19.794C20.4317 22.7671 20.9464 22.2491 20.9464 21.609C20.9464 21.5954 20.9448 15.3869 20.9448 15.3869L22.0751 15.3885C23.0514 15.3851 23.842 14.5914 23.842 13.6151C23.842 13.129 23.6462 12.6895 23.3285 12.3688" fill="white"/>
<path d="M39.0427 11.5714C39.0427 10.284 38.184 9.73522 36.4691 9.73522C36.1078 9.73522 35.2509 9.76993 34.9422 9.80327V13.6643C35.2163 13.6812 36.1776 13.7151 36.4691 13.7151C38.2366 13.7151 39.0427 13.2356 39.0427 11.7255V11.5714ZM41.6169 20.5803H39.5228C39.3347 20.5803 39.2666 20.409 39.18 20.2364L36.7091 15.6552H36.4691C36.023 15.6552 35.3357 15.6039 34.9422 15.5865V20.2363C34.9422 20.4256 34.8049 20.5803 34.6149 20.5803H32.8988C32.7113 20.5803 32.5566 20.4256 32.5566 20.2363V8.43044C32.5566 8.08768 32.7621 7.96767 33.1054 7.9169C33.9975 7.77777 35.2163 7.69238 36.4691 7.69238C39.112 7.69238 41.4115 8.63704 41.4115 11.5713V11.7254C41.4115 13.5443 40.5009 14.6764 39.0946 15.2264L41.7889 20.2363C41.8229 20.2876 41.8229 20.3391 41.8229 20.3736C41.8229 20.4948 41.7542 20.5802 41.6169 20.5802" fill="#31302F"/>
<path d="M50.0425 20.4779C49.4931 20.5639 48.8237 20.718 46.7821 20.718C44.5512 20.718 42.8184 20.1173 42.8184 17.1997V11.2116C42.8184 8.29466 44.5512 7.69336 46.7821 7.69336C48.8237 7.69336 49.4931 7.84806 50.0425 7.934C50.2992 7.9687 50.3852 8.054 50.3852 8.29466V9.39279C50.3852 9.58089 50.2312 9.73614 50.0425 9.73614H46.5409C45.5467 9.73614 45.186 10.0789 45.186 11.2116V13.0652H49.8365C50.0251 13.0652 50.1792 13.2192 50.1792 13.4079V14.6434C50.1792 14.8309 50.0252 14.9861 49.8365 14.9861H45.186V17.1997C45.186 18.333 45.5467 18.6758 46.5409 18.6758H50.0425C50.2312 18.6758 50.3852 18.8299 50.3852 19.0192V20.1173C50.3852 20.3573 50.2992 20.4439 50.0425 20.4779" fill="#31302F"/>
<path d="M56.7172 9.97464C56.6652 9.76922 56.614 9.70056 56.4431 9.70056C56.2718 9.70056 56.2204 9.76929 56.1685 9.97464L54.933 15.0712H57.9527L56.7172 9.97464ZM61.351 20.5803H59.5321C59.3769 20.5803 59.2401 20.443 59.206 20.2877L58.416 17.028H54.469L53.679 20.2877C53.6455 20.4429 53.5082 20.5803 53.3542 20.5803H51.5347C51.3639 20.5803 51.2266 20.4603 51.2266 20.2877C51.2266 20.2704 51.2438 20.2364 51.2438 20.2017L54.0581 9.44318C54.4689 7.84704 55.7044 7.69238 56.4431 7.69238C57.1805 7.69238 58.416 7.84709 58.8274 9.44318L61.6423 20.2017C61.6423 20.2364 61.6592 20.2704 61.6592 20.2877C61.6592 20.4603 61.5219 20.5803 61.3511 20.5803" fill="#31302F"/>
<path d="M80.5456 12.7034C79.6195 12.7034 78.8982 12.9435 78.178 13.3215V20.2195C78.178 20.4088 78.0233 20.5802 77.8341 20.5802H76.2558C76.0677 20.5802 75.9131 20.4088 75.9131 20.2195V11.2446C75.9131 11.0565 76.0678 10.9025 76.2558 10.9025H77.7487C77.9368 10.9025 78.092 11.0565 78.092 11.2446V11.6059C78.9328 10.9532 79.8589 10.7812 80.5456 10.7812C80.7337 10.7812 80.8896 10.9365 80.8896 11.1252V12.3607C80.8896 12.5494 80.7337 12.7034 80.5456 12.7034" fill="#31302F"/>
<path d="M87.2482 15.0543C87.2482 13.6469 86.6141 12.7381 85.4114 12.7381C84.2118 12.7381 83.5759 13.6469 83.5759 15.0543V16.4445C83.5759 17.8513 84.2118 18.7613 85.4114 18.7613C86.6141 18.7613 87.2482 17.8513 87.2482 16.4445V15.0543ZM85.4114 20.7175C82.719 20.7175 81.3115 18.8981 81.3115 16.4445V15.0543C81.3115 12.6007 82.719 10.7812 85.4114 10.7812C88.1069 10.7812 89.5132 12.6007 89.5132 15.0543V16.4445C89.5132 18.8981 88.1069 20.7175 85.4114 20.7175Z" fill="#31302F"/>
<path d="M98.2283 20.5801H96.6501C96.4614 20.5801 96.3079 20.426 96.3079 20.2361V19.842C95.414 20.426 94.7106 20.7001 93.6125 20.7001C92.7544 20.7001 91.9996 20.4774 91.5016 19.9794C90.8663 19.3446 90.6436 18.2805 90.6436 16.8564V11.2618C90.6436 11.0731 90.7983 10.9023 90.9869 10.9023H92.5651C92.7544 10.9023 92.9091 11.0731 92.9091 11.2618V16.8564C92.9091 17.7144 92.9778 18.2124 93.3032 18.5032C93.5444 18.7093 93.8358 18.812 94.3672 18.812C95.0032 18.812 95.826 18.3832 96.3079 18.1258V11.2618C96.3079 11.0731 96.4615 10.9023 96.6501 10.9023H98.2283C98.417 10.9023 98.5723 11.0731 98.5723 11.2618V20.2361C98.5723 20.426 98.417 20.5801 98.2283 20.5801" fill="#31302F"/>
<path d="M105.694 15.0883C105.694 13.6809 105.332 12.6347 103.856 12.6347C103.239 12.6347 102.535 12.6867 102.21 12.7548V18.7434C102.69 18.8121 103.445 18.8634 103.856 18.8634C105.332 18.8634 105.694 17.8172 105.694 16.4098V15.0883ZM103.856 20.7175C103.445 20.7175 102.844 20.6828 102.21 20.5975V23.6345C102.21 23.8238 102.055 23.9773 101.865 23.9773H100.288C100.099 23.9773 99.9443 23.8238 99.9443 23.6345V11.6907C99.9443 11.4333 100.013 11.3306 100.407 11.2273C101.472 10.9538 102.759 10.7812 103.856 10.7812C106.619 10.7812 107.958 12.412 107.958 15.0884V16.4098C107.958 19.0874 106.619 20.7175 103.856 20.7175" fill="#31302F"/>
<path d="M73.9127 20.4283C73.0546 20.5996 71.9404 20.7209 70.1741 20.7209C68.3218 20.7209 65.5779 19.5021 65.5779 15.4554V12.9856C65.5779 8.92213 68.1856 7.70398 70.226 7.70398C71.8717 7.70398 73.346 7.90999 73.9127 8.01329C74.1348 8.06458 74.2381 8.15006 74.2381 8.37277V9.52224C74.2381 9.76228 74.1694 9.88231 73.8954 9.88231H73.8434C73.0546 9.81358 71.8717 9.74503 70.226 9.74503C69.0765 9.74503 67.979 10.5506 67.979 12.9857V15.4554C67.979 17.8899 69.1625 18.6793 70.174 18.6793C70.8082 18.6793 71.3408 18.6614 71.8717 18.6281V14.2552C71.8717 14.0666 72.0096 13.9125 72.1977 13.9125H73.8954C74.0846 13.9125 74.2381 14.0665 74.2381 14.2552V20.017C74.2381 20.2397 74.1349 20.377 73.9127 20.4284" fill="#31302F"/>
<path d="M73.9127 20.4283C73.0546 20.5996 71.9404 20.7209 70.1741 20.7209C68.3218 20.7209 65.5779 19.5021 65.5779 15.4554V12.9856C65.5779 8.92213 68.1856 7.70398 70.226 7.70398C71.8717 7.70398 73.346 7.90999 73.9127 8.01329C74.1348 8.06458 74.2381 8.15006 74.2381 8.37277V9.52224C74.2381 9.76228 74.1694 9.88231 73.8954 9.88231H73.8434C73.0546 9.81358 71.8717 9.74503 70.226 9.74503C69.0765 9.74503 67.979 10.5506 67.979 12.9857V15.4554C67.979 17.8899 69.1625 18.6793 70.174 18.6793C70.8082 18.6793 71.3408 18.6614 71.8717 18.6281V14.2552C71.8717 14.0666 72.0096 13.9125 72.1977 13.9125H73.8954C74.0846 13.9125 74.2381 14.0665 74.2381 14.2552V20.017C74.2381 20.2397 74.1349 20.377 73.9127 20.4284" fill="#31302F"/>
<path d="M108.529 8.86099H108.306V9.2115H108.529C108.647 9.2115 108.724 9.15716 108.724 9.03236C108.724 8.91658 108.636 8.86099 108.529 8.86099ZM108.721 9.81283L108.533 9.39421H108.309V9.81283H108.111V8.67648H108.529C108.745 8.67648 108.932 8.80121 108.932 9.03236C108.932 9.18097 108.867 9.29928 108.726 9.36197L108.939 9.81283H108.721ZM108.481 8.36179C107.957 8.36179 107.608 8.74454 107.608 9.26403C107.608 9.78355 107.957 10.1633 108.481 10.1633C109.007 10.1633 109.353 9.78058 109.353 9.26166C109.353 8.74216 109.007 8.36179 108.481 8.36179ZM108.481 10.3532C107.867 10.3532 107.409 9.87253 107.409 9.26403C107.409 8.65556 107.867 8.17188 108.481 8.17188C109.096 8.17188 109.552 8.65259 109.552 9.26166C109.552 9.86954 109.096 10.3532 108.481 10.3532Z" fill="#31302F"/>
</g>
<defs>
<clipPath id="clip0_2_778">
<rect width="110" height="28.533" fill="white"/>
</clipPath>
</defs>
</svg>
