<svg width="109" height="19" viewBox="0 0 109 19" fill="none" xmlns="http://www.w3.org/2000/svg">
<path d="M7.66755 9.67527C6.99527 9.67527 6.61371 9.39637 6.41384 8.87343C6.21397 8.38536 6.26848 8.15875 5.75973 8.15875C5.25098 8.15875 4.05178 9.50096 3.88825 11.3487C3.85191 11.5578 3.83374 12.7954 3.83374 13.4753V15.1487C3.83374 15.8808 3.77924 16.8046 3.92459 17.345C4.06995 18.0771 4.26982 18.1643 4.85125 18.4083C5.05111 18.4954 5.14196 18.5129 5.26915 18.5477V18.6H-6.10352e-05V18.5477C0.108957 18.5129 0.217975 18.4954 0.417842 18.4083C1.01744 18.1643 1.18097 18.0771 1.32633 17.345C1.47168 16.8046 1.41718 15.8808 1.41718 15.1487V10.4248C1.41718 9.97159 1.45351 8.66426 1.38084 8.24591C1.28999 7.72297 1.1628 7.56609 0.890254 7.37435C0.599539 7.16517 0.326993 7.16517 0.145296 7.13031V7.07802H3.68839C3.85191 7.07802 3.85191 7.13031 3.85191 7.2349L3.81557 10.3376H3.85191C4.19714 8.97802 4.92393 8.10646 5.32366 7.72297C5.72339 7.32205 6.45018 6.83398 7.35866 6.83398C7.77657 6.83398 8.26715 6.93857 8.57604 7.26976C8.79407 7.47894 8.97577 7.84499 8.97577 8.42022C8.99394 9.04774 8.57604 9.67527 7.66755 9.67527Z" fill="#31302F"/>
<path d="M60.8137 9.67527C60.1414 9.67527 59.7599 9.39637 59.56 8.87343C59.3601 8.38536 59.4147 8.15875 58.9059 8.15875C58.3972 8.15875 57.198 9.50096 57.0344 11.3487C56.9981 11.5578 56.9799 12.7954 56.9799 13.4753V15.1487C56.9799 15.8808 56.9254 16.8046 57.0708 17.345C57.2161 18.0771 57.416 18.1643 57.9974 18.4083C58.1973 18.4954 58.2881 18.5129 58.4153 18.5477V18.6H53.1098V18.5477C53.2188 18.5129 53.3278 18.4954 53.5277 18.4083C54.1273 18.1643 54.2908 18.0771 54.4362 17.345C54.5815 16.8046 54.527 15.8808 54.527 15.1487V10.4248C54.527 9.97159 54.5633 8.66426 54.4907 8.24591C54.3998 7.72297 54.2726 7.56609 54.0183 7.37435C53.7275 7.16517 53.455 7.16517 53.2733 7.13031V7.07802H56.8527C57.0163 7.07802 57.0163 7.13031 57.0163 7.2349L56.9799 10.3376H57.0163C57.3615 8.97802 58.0883 8.10646 58.488 7.72297C58.8877 7.32205 59.6145 6.83398 60.523 6.83398C60.9409 6.83398 61.4315 6.93857 61.7404 7.26976C61.9584 7.47894 62.1401 7.84499 62.1401 8.42022C62.1401 9.04774 61.7222 9.67527 60.8137 9.67527Z" fill="#31302F"/>
<path d="M15.335 7.84501C14.8808 7.47896 14.4266 7.35694 13.7543 7.35694C13.1547 7.35694 12.7004 7.49639 12.2825 7.87988C11.6648 8.42024 11.3195 9.64042 11.2287 11.4184H15.2987C16.1163 11.4184 16.2072 11.401 16.2072 10.4074C16.2254 9.03033 15.7893 8.21107 15.335 7.84501ZM18.7146 11.9588H11.2287C11.2287 15.1312 11.6466 16.1074 12.4824 16.9964C13.1365 17.7111 13.7361 17.8854 14.5537 17.8854C16.825 17.8854 18.0605 16.7872 18.4966 14.8698L18.6056 14.9046C18.0968 17.2753 16.5342 18.8092 14.0995 18.8092C12.6823 18.8092 11.156 18.478 10.1022 17.4322C8.97565 16.2643 8.53958 14.8523 8.53958 12.9001C8.53958 9.25694 10.7199 6.81657 13.7179 6.81657C17.2065 6.81657 18.7328 9.0652 18.7328 11.1918C18.7509 11.3835 18.7509 11.6624 18.7146 11.9588ZM23.5114 13.2312C22.7119 13.6322 22.3849 13.9111 22.1305 14.2946C21.8398 14.7303 21.6763 15.2184 21.6763 15.9854C21.6763 17.5368 22.294 17.8679 23.4387 17.8679C23.6568 17.8679 23.9111 17.8331 24.1473 17.7285C24.7469 17.4322 25.6009 16.5606 25.6009 15.689L25.6373 11.889C25.2375 12.4643 24.2745 12.8478 23.5114 13.2312ZM27.7268 18.8267C27.0545 18.8267 26.5094 18.7918 26.1642 18.6175C25.8008 18.4257 25.5464 17.8854 25.6009 16.8744H25.5646C25.2739 17.7982 24.002 18.8267 22.185 18.8267C20.5134 18.8267 19.0417 17.9028 19.0417 15.9505C19.0417 15.2184 19.2597 14.6432 19.7503 14.2074C20.6224 13.423 21.8216 13.3707 23.039 12.9001C24.6561 12.3074 25.6918 11.5753 25.6918 10.756C25.6918 10.3551 25.7281 9.41382 25.7281 9.0129C25.7281 7.54868 25.0377 7.30464 23.8203 7.30464C23.2207 7.30464 22.8573 7.40923 22.5666 7.68813C22.2759 7.96703 22.1669 8.21107 22.1669 9.0129C22.1669 9.8496 21.6944 10.2157 20.895 10.2157C20.2772 10.2157 19.7685 9.88446 19.7685 9.18722C19.7685 8.734 19.932 8.40281 20.2227 8.07161C20.8405 7.30464 22.5666 6.85143 23.784 6.85143C25.8735 6.85143 28.2174 7.58354 28.2174 9.51841C28.2174 10.4074 28.1629 14.678 28.1629 16.2991C28.1629 16.6652 28.1628 17.0138 28.181 17.3799C28.2174 17.8157 28.3445 18.3212 28.8715 18.4432C29.1077 18.4955 29.4166 18.4432 29.6164 18.3037V18.3386C29.3257 18.5826 28.6353 18.8267 27.7268 18.8267ZM29.6528 18.5826V18.5303C29.7981 18.4955 29.998 18.4432 30.1252 18.3909C30.6158 18.1991 30.8338 18.0423 30.9792 17.3276C31.0882 16.8046 31.0882 15.9157 31.0882 15.1487V3.33033C31.0882 2.87712 31.1245 1.56978 31.0337 1.15144C30.9428 0.6285 30.8156 0.436757 30.5612 0.279877C30.2524 0.0532712 30.0162 0.0532723 29.8163 0.0358411V0.000976562H33.3776C33.5411 0.000976562 33.5411 0.000977622 33.5411 0.192721C33.5411 0.593638 33.5047 1.16887 33.5047 1.90098V15.1661C33.5047 15.9331 33.4684 16.8046 33.5956 17.345C33.7591 18.0771 33.959 18.2166 34.5586 18.4257C34.7221 18.478 34.7766 18.5129 34.922 18.5303V18.5826H29.6528Z" fill="#31302F"/>
<path d="M42.6986 17.1008C42.2807 17.9898 41.027 18.8439 39.8097 18.8439C38.7013 18.8439 37.9745 18.687 37.3386 18.1292C36.8298 17.6934 36.5936 17.1531 36.5936 16.1421C36.5936 15.6017 36.6845 8.5595 36.7027 7.23473C36.2847 7.19987 35.4489 7.19987 35.031 7.14758V7.09529C36.7935 6.7118 37.8837 5.84024 39.0829 2.17969H39.1737V6.67693H41.9719V7.19987H39.1737L39.0647 16.3338C39.0647 17.3623 39.3736 18.2512 40.5001 18.2512C41.4994 18.2512 42.2626 17.6935 42.5896 17.0311L42.6986 17.1008Z" fill="#31302F"/>
<path d="M49.3658 8.14103C48.8025 7.49608 48.1484 7.35663 47.4943 7.35663C46.8765 7.35663 46.1861 7.58323 45.6592 8.1236C44.8052 8.9603 44.3328 10.7383 44.3328 12.8126C44.3328 14.9392 44.8415 16.5952 45.641 17.4841C46.2042 18.1291 46.8947 18.3034 47.5125 18.3034C48.1666 18.3034 48.7843 18.164 49.3839 17.519C50.1471 16.63 50.6922 14.9392 50.6922 12.8126C50.6558 10.7034 50.1471 9.04745 49.3658 8.14103ZM47.4943 18.8264C44.6962 18.8264 41.68 16.5254 41.68 12.7952C41.68 9.06488 44.678 6.81626 47.4943 6.81626C50.2924 6.81626 53.3268 9.09974 53.3268 12.7952C53.3268 16.4906 50.2924 18.8264 47.4943 18.8264ZM82.2529 8.14103C81.6897 7.49608 81.0355 7.35663 80.3814 7.35663C79.7637 7.35663 79.0732 7.58323 78.5463 8.1236C77.6923 8.9603 77.2199 10.7383 77.2199 12.8126C77.2199 14.9392 77.7287 16.5952 78.5281 17.4841C79.0914 18.1291 79.7818 18.3034 80.3996 18.3034C81.0537 18.3034 81.6715 18.164 82.2711 17.519C83.0342 16.63 83.5793 14.9392 83.5793 12.8126C83.543 10.7034 83.0342 9.04745 82.2529 8.14103ZM80.3814 18.8264C77.5833 18.8264 74.5671 16.5254 74.5671 12.7952C74.5671 9.06488 77.5651 6.81626 80.3814 6.81626C83.1796 6.81626 86.2139 9.09974 86.2139 12.7952C86.2139 16.4906 83.1796 18.8264 80.3814 18.8264ZM62.2481 19.0007C61.4305 19.0007 60.74 18.3731 60.74 17.5016C60.74 16.63 61.4123 16.0025 62.2481 16.0025C63.0657 16.0025 63.7562 16.5429 63.7562 17.5016C63.7562 18.4603 63.0657 19.0007 62.2481 19.0007ZM70.1156 18.8264C68.553 18.8264 67.1721 18.2511 66.2636 17.3796C65.1007 16.2465 64.6465 14.6429 64.6465 12.6731C64.6465 8.97773 67.59 6.79883 70.1337 6.79883C71.8962 6.79883 73.1862 7.42635 73.695 8.01901C74.0947 8.48965 74.2946 8.89057 74.2946 9.27406C74.2946 10.1108 73.6405 10.4419 73.1317 10.4419C72.1687 10.4419 71.8235 9.86672 71.7145 8.99516C71.4965 7.44378 71.2239 7.25204 70.0065 7.25204C69.5341 7.25204 68.7528 7.44378 68.2986 7.93186C67.6445 8.64653 67.2993 10.0933 67.2993 12.2025C67.2993 14.8695 67.6445 15.9153 68.3713 16.9438C68.9164 17.7108 69.5886 17.9025 70.2428 17.9025C72.7865 17.9025 73.9312 16.4731 74.3128 14.8695L74.4218 14.9043C73.9675 17.0658 72.4958 18.8264 70.1156 18.8264Z" fill="#31302F"/>
<path d="M100.715 18.5996V18.5473C100.86 18.5124 100.933 18.495 101.133 18.4078C101.696 18.1987 101.896 18.0592 102.041 17.3271C102.187 16.7867 102.15 15.9152 102.15 15.1482V10.4243C102.15 9.16929 102.041 8.59407 101.732 8.17572C101.369 7.70508 100.915 7.46104 100.17 7.46104C98.898 7.46104 97.4808 9.55278 97.2809 11.6445C97.2446 12.0454 97.2264 12.3941 97.2264 12.8996V15.1482C97.2264 15.9152 97.1719 16.7867 97.3172 17.3271C97.4626 18.0592 97.6806 18.1987 98.2439 18.4078C98.4438 18.495 98.5346 18.5124 98.6618 18.5473V18.5996H93.3744V18.5473C93.5198 18.5124 93.5924 18.495 93.7923 18.4078C94.3556 18.1987 94.5554 18.0592 94.7008 17.3271C94.8462 16.7867 94.8098 15.9152 94.8098 15.1482V10.4243C94.8098 9.16929 94.6645 8.59407 94.3556 8.17572C93.9922 7.70508 93.5379 7.46104 92.793 7.46104C91.3757 7.46104 90.1039 9.60508 89.904 11.6968C89.8495 12.3418 89.8495 12.0977 89.8495 12.917V15.1482C89.8495 15.9152 89.795 16.8042 89.9403 17.3445C90.0857 18.0766 90.3037 18.1638 90.9033 18.4078L91.3031 18.5473V18.5996H86.0157V18.5473C86.1247 18.5124 86.2337 18.495 86.4336 18.4078C87.0332 18.1987 87.1785 18.0766 87.3421 17.3445C87.4874 16.8042 87.4511 15.8977 87.4511 15.1482V10.4418C87.4511 9.9537 87.4511 8.64636 87.3966 8.24544C87.3057 7.72251 87.1967 7.60049 86.906 7.37388C86.6153 7.16471 86.3609 7.16471 86.161 7.12985V7.07756H89.7223C89.8858 7.07756 89.8858 7.11242 89.8858 7.23443L89.8313 9.9014H89.8677C90.2129 8.69865 90.8307 8.01884 91.4484 7.60049C91.9027 7.2693 92.8111 6.83352 93.7923 6.83352C95.046 6.83352 95.9182 7.18214 96.4269 7.79224C96.7176 8.12343 97.1719 8.87296 97.1719 9.98856H97.2082C97.5716 8.71608 98.2621 8.00141 98.8435 7.60049C99.4613 7.16471 100.424 6.83352 101.169 6.83352C102.732 6.83352 103.44 7.30416 103.858 7.80966C104.222 8.21058 104.531 8.94269 104.531 10.3372V15.1482C104.531 15.9152 104.494 16.7867 104.64 17.3271C104.785 18.0592 104.985 18.1638 105.566 18.4078L105.966 18.5473V18.5996H100.715ZM107.474 7.18214C107.583 7.18214 107.674 7.16471 107.728 7.11241C107.783 7.06012 107.819 7.00783 107.819 6.92068V6.90324C107.819 6.81609 107.783 6.74636 107.728 6.7115C107.674 6.65921 107.583 6.64178 107.474 6.64178H107.038V7.16471H107.474V7.18214ZM106.711 6.36288H107.492C107.71 6.36288 107.892 6.41517 108.019 6.53719C108.11 6.62434 108.165 6.74636 108.165 6.88581C108.165 7.02526 108.128 7.12985 108.056 7.217C107.983 7.30416 107.892 7.35645 107.765 7.39131L108.237 8.01884H107.837L107.42 7.44361H107.056V8.01884H106.729L106.711 6.36288ZM107.383 8.59407C107.583 8.59407 107.765 8.55921 107.947 8.48948C108.11 8.41976 108.274 8.31517 108.401 8.19315C108.528 8.07113 108.619 7.93168 108.691 7.75737C108.764 7.60049 108.8 7.40875 108.8 7.23443C108.8 7.04269 108.764 6.86838 108.691 6.7115C108.619 6.55462 108.528 6.39774 108.401 6.27572C108.274 6.1537 108.128 6.04911 107.947 5.97939C107.783 5.90966 107.583 5.8748 107.383 5.8748C107.183 5.8748 107.002 5.90966 106.82 5.97939C106.656 6.04911 106.493 6.1537 106.366 6.27572C106.239 6.39774 106.148 6.53719 106.075 6.7115C106.002 6.86838 105.966 7.06012 105.966 7.23443C105.966 7.42618 106.002 7.60049 106.075 7.75737C106.148 7.91425 106.239 8.07113 106.366 8.19315C106.493 8.31517 106.638 8.41976 106.82 8.48948C107.002 8.55921 107.183 8.59407 107.383 8.59407ZM107.383 8.80324C107.147 8.80324 106.947 8.76838 106.747 8.68122C106.547 8.59407 106.384 8.48948 106.239 8.35003C106.093 8.21058 105.984 8.0537 105.893 7.86196C105.802 7.67022 105.766 7.47847 105.766 7.2693C105.766 7.06013 105.802 6.85095 105.893 6.67663C105.984 6.48489 106.093 6.32801 106.239 6.18856C106.384 6.04911 106.566 5.9271 106.747 5.85737C106.947 5.77022 107.165 5.73535 107.383 5.73535C107.619 5.73535 107.819 5.77022 108.019 5.85737C108.219 5.94453 108.383 6.04911 108.528 6.18856C108.673 6.32801 108.782 6.48489 108.873 6.67663C108.964 6.86838 109 7.06013 109 7.2693C109 7.47847 108.964 7.68765 108.873 7.86196C108.782 8.0537 108.673 8.21058 108.528 8.35003C108.383 8.48948 108.201 8.6115 108.019 8.68122C107.819 8.75095 107.619 8.80324 107.383 8.80324Z" fill="#31302F"/>
</svg>
