<svg width="57" height="27" viewBox="0 0 57 27" fill="none" xmlns="http://www.w3.org/2000/svg">
<g clip-path="url(#clip0_2937_62267)">
<path fill-rule="evenodd" clip-rule="evenodd" d="M0 27.001H28.8077L57 0.000976562H0V27.001" fill="#31302F"/>
<path fill-rule="evenodd" clip-rule="evenodd" d="M33.8269 5.40008H28.1974L28.2163 18.0781L23.3143 5.39528H18.4537L14.2692 15.9871C13.8243 13.2919 10.9144 12.3619 8.62474 11.6653C7.11273 11.2003 5.50799 10.5163 5.52428 9.76028C5.53681 9.13988 6.38273 8.56448 8.06392 8.65028C9.19182 8.70848 10.1881 8.79548 12.1701 9.71228L14.1188 6.46028C12.3117 5.57948 9.81278 5.02328 7.76378 5.02148H7.75124C5.36199 5.02148 3.37251 5.76248 2.13935 6.98348C1.27964 7.83548 0.81595 8.91908 0.797152 10.1173C0.765821 11.7661 1.39682 12.9349 2.72272 13.8691C3.84309 14.6551 5.27614 15.1651 6.53876 15.5395C8.09588 16.0015 9.36789 16.4035 9.35223 17.2591C9.3397 17.5711 9.21688 17.8627 8.98253 18.0979C8.59403 18.4819 7.99875 18.6259 7.17477 18.6415C5.58506 18.6739 4.40704 18.4345 2.52972 17.3719L0.795898 20.6659C2.67134 21.6871 4.66207 22.1995 6.92412 22.1995L7.43293 22.1959C9.40173 22.1617 10.9996 21.7099 12.2691 20.7319C12.3418 20.6761 12.4069 20.6197 12.4746 20.5627L12.2616 21.6139L17.0113 21.5995L17.8634 19.5103C18.7595 19.8031 19.7784 19.9651 20.8599 19.9651C21.9138 19.9651 22.9051 19.8115 23.7843 19.5355L24.3783 21.5995L32.9001 21.6073L32.9208 16.8445H34.7342C39.1174 16.8445 41.7084 14.7085 41.7084 11.1265C41.707 7.13709 39.1882 5.39949 33.8269 5.39949L33.8269 5.40008ZM20.8599 16.2373C20.2051 16.2373 19.591 16.1281 19.0628 15.9361L20.8398 10.5631H20.8743L22.6225 15.9511C22.0962 16.1311 21.4965 16.2373 20.8592 16.2373H20.8599ZM34.1565 13.1503H32.9196V8.82008H34.1571C35.8051 8.82008 37.121 9.34568 37.121 10.9573C37.1195 12.6253 35.8051 13.1503 34.1571 13.1503" fill="white"/>
</g>
<defs>
<clipPath id="clip0_2937_62267">
<rect width="57" height="27" fill="white"/>
</clipPath>
</defs>
</svg>
