<svg width="178" height="48" viewBox="0 0 178 48" fill="none" xmlns="http://www.w3.org/2000/svg">
<g clip-path="url(#clip0_2_724)">
<path d="M24.4218 44.9061C21.75 45.3752 19.0313 45.5159 16.2188 45.8905L7.6405 20.7657V46.9689C4.96873 47.25 2.53128 47.625 0 48V0H7.12519L16.875 27.2348V0H24.4218V44.9061ZM39.1875 17.5781C42.094 17.5781 46.547 17.4375 49.2188 17.4375V24.9373C45.8905 24.9373 42.0001 24.9373 39.1875 25.078V36.2344C43.5939 35.9533 48.0002 35.5779 52.4531 35.4373V42.6556L31.6873 44.2966V0H52.4531V7.50001H39.1875V17.5781V17.5781ZM80.3437 7.50018H72.5625V42.0001C70.0312 42.0001 67.4999 42.0001 65.0628 42.0936V7.50018H57.2817V0H80.344L80.3437 7.50018V7.50018ZM92.5311 17.0627H102.797V24.5625H92.5311V41.5783H85.1712V0H106.125V7.50001H92.5311V17.0627V17.0627ZM118.312 35.0156C122.578 35.1091 126.89 35.4378 131.062 35.6718V43.0781C124.359 42.6559 117.656 42.2346 110.813 42.0936V0H118.312V35.0156ZM137.39 43.5938C139.781 43.7346 142.312 43.8753 144.75 44.1561V0H137.39V43.5938V43.5938ZM177.609 0L168.094 22.8282L177.609 48C174.797 47.625 171.984 47.1093 169.172 46.6405L163.781 32.7658L158.297 45.5159C155.578 45.0467 152.953 44.9061 150.235 44.5311L159.891 22.5467L151.172 0H159.234L164.156 12.6094L169.406 0H177.609V0Z" fill="#D81F26"/>
</g>
<defs>
<clipPath id="clip0_2_724">
<rect width="177.609" height="48" fill="white"/>
</clipPath>
</defs>
</svg>
